<svg xmlns="http://www.w3.org/2000/svg" width="1584" height="288" viewBox="0 0 1584 288">
  <!-- NUKE NETWORK box logo — vectorized from nukemain.png (600% trace) -->
  <rect x="0" y="0" width="1584" height="288" fill="#c41e1e"/>
  <g fill="#ffffff" transform="translate(0.000000,288.000000) scale(0.010000,-0.010000)">
    <path d="M5520 23880 c-174 -174 -174 -18786 0 -18960 85 -85 662 -120 1958
-120 l1838 0 442 442 442 442 0 951 c0 943 -3 953 -300 1165 l-300 214 0 2781
c0 2350 23 2800 150 2905 283 235 450 -52 450 -771 0 -594 25 -669 300 -910
l300 -264 0 -1270 0 -1271 300 -214 300 -214 0 -1286 0 -1286 300 -214 c242
-172 300 -286 300 -587 0 -205 54 -427 120 -493 172 -172 6188 -172 6360 0
174 174 174 18786 0 18960 -169 169 -3791 169 -3960 0 -90 -90 -120 -1202
-120 -4388 0 -3671 -21 -4285 -150 -4392 -120 -99 -180 -99 -300 0 -119 98
-150 385 -150 1371 l0 1247 -300 263 -300 264 0 1270 0 1271 -300 214 c-297
212 -300 222 -300 1165 l0 951 -442 442 -442 442 -3038 0 c-2230 0 -3070 -32
-3158 -120z M20520 23880 c-91 -91 -120 -2070 -120 -8293 l0 -8173 300 -214
c236 -168 300 -289 300 -565 0 -282 87 -438 442 -793 l442 -442 951 0 c943 0
953 -3 1165 -300 l214 -300 1586 0 1586 0 214 300 c212 297 222 300 1162 300
l948 0 745 745 745 745 0 8435 c0 6427 -29 8464 -120 8555 -170 170 -4390 170
-4560 0 -91 -91 -120 -1867 -120 -7380 0 -5513 -29 -7289 -120 -7380 -66 -66
-282 -120 -480 -120 -198 0 -414 54 -480 120 -91 91 -120 1867 -120 7380 0
5513 -29 7289 -120 7380 -170 170 -4390 170 -4560 0z M32520 23880 c-174 -174
-174 -18786 0 -18960 170 -170 4390 -170 4560 0 87 87 120 802 120 2588 0
2071 24 2487 150 2592 225 187 450 -49 450 -471 0 -260 75 -413 300 -610 277
-244 300 -314 300 -934 0 -632 18 -684 300 -885 245 -174 300 -285 300 -600 0
-315 55 -426 300 -600 242 -172 300 -286 300 -587 0 -205 54 -427 120 -493
174 -174 13386 -174 13560 0 168 168 168 3192 0 3360 -83 83 -595 120 -1658
120 l-1538 0 -442 442 -442 442 0 1538 c0 1063 37 1575 120 1658 83 83 600
120 1680 120 1080 0 1597 37 1680 120 168 168 168 3192 0 3360 -83 83 -600
120 -1680 120 -1080 0 -1597 37 -1680 120 -169 169 -169 3791 0 3960 85 85
667 120 1980 120 1313 0 1895 35 1980 120 168 168 168 3192 0 3360 -174 174
-13986 174 -14160 0 -66 -66 -120 -288 -120 -493 0 -301 -58 -415 -300 -587
-282 -201 -300 -253 -300 -885 0 -620 -23 -690 -300 -934 -225 -197 -300 -350
-300 -610 0 -422 -225 -658 -450 -471 -124 103 -150 454 -150 1992 0 1320 -35
1903 -120 1988 -170 170 -4390 170 -4560 0z m11760 -1200 c91 -91 120 -1935
120 -7688 0 -6605 -19 -7583 -150 -7692 -283 -235 -450 52 -450 771 0 594 -25
669 -300 910 -232 204 -300 347 -300 634 0 298 -59 413 -300 585 -283 202
-300 251 -300 900 0 649 -17 698 -300 900 -245 174 -300 285 -300 600 0 315
-55 426 -300 600 -282 201 -300 253 -299 882 1 632 -17 683 -325 943 l-326
275 326 275 c259 219 326 350 325 643 -1 296 58 411 299 582 283 202 300 251
300 900 0 649 17 698 300 900 245 174 300 285 300 600 0 315 55 426 300 600
282 201 300 253 300 885 0 620 23 690 300 934 223 195 300 350 300 602 0 306
142 579 300 579 33 0 114 -54 180 -120z M61320 23880 c-174 -174 -174 -18786
0 -18960 85 -85 662 -120 1958 -120 l1838 0 442 442 442 442 0 951 c0 943 -3
953 -300 1165 l-300 214 0 2781 c0 2350 23 2800 150 2905 283 235 450 -52 450
-771 0 -594 25 -669 300 -910 l300 -264 0 -1270 0 -1271 300 -214 300 -214 0
-1286 0 -1286 300 -214 c242 -172 300 -286 300 -587 0 -205 54 -427 120 -493
172 -172 6188 -172 6360 0 174 174 174 18786 0 18960 -169 169 -3791 169
-3960 0 -90 -90 -120 -1202 -120 -4388 0 -3671 -21 -4285 -150 -4392 -120 -99
-180 -99 -300 0 -119 98 -150 385 -150 1371 l0 1247 -300 263 -300 264 0 1270
0 1271 -300 214 c-297 212 -300 222 -300 1165 l0 951 -442 442 -442 442 -3038
0 c-2230 0 -3070 -32 -3158 -120z M75720 23880 c-174 -174 -174 -18786 0
-18960 173 -173 8587 -173 8760 0 168 168 168 3192 0 3360 -83 83 -595 120
-1658 120 l-1538 0 -442 442 -442 442 0 1538 c0 1063 37 1575 120 1658 83 83
600 120 1680 120 1080 0 1597 37 1680 120 168 168 168 3192 0 3360 -83 83
-600 120 -1680 120 -1080 0 -1597 37 -1680 120 -169 169 -169 3791 0 3960 172
172 6788 172 6960 0 91 -91 120 -1933 120 -7680 0 -5747 29 -7589 120 -7680
170 -170 4390 -170 4560 0 91 91 120 1933 120 7680 0 5747 29 7589 120 7680
81 81 537 120 1396 120 1160 0 1286 18 1380 193 151 281 137 3134 -16 3287
-174 174 -19386 174 -19560 0z M96120 23880 c-87 -87 -120 -803 -120 -2593 l0
-2473 300 -214 300 -214 0 -2486 0 -2486 300 -214 300 -214 0 -2786 0 -2786
300 -214 c298 -212 300 -220 300 -1187 0 -623 43 -1016 120 -1093 172 -172
6188 -172 6360 0 83 83 120 603 120 1693 l0 1573 300 214 300 214 0 2473 c0
1790 33 2506 120 2593 66 66 282 120 480 120 198 0 414 -54 480 -120 87 -87
120 -803 120 -2593 l0 -2473 300 -214 300 -214 0 -1573 c0 -1090 37 -1610 120
-1693 172 -172 6188 -172 6360 0 77 77 120 470 120 1093 0 967 2 975 300 1187
l300 214 0 2786 0 2786 300 214 300 214 0 2471 0 2470 300 264 300 263 0 2439
c0 1764 -33 2472 -120 2559 -170 170 -4390 170 -4560 0 -89 -89 -120 -1068
-120 -3788 0 -4257 9 -4217 -748 -3460 l-452 452 0 2751 0 2751 -300 214
c-242 172 -300 286 -300 587 0 205 -54 427 -120 493 -171 171 -5589 171 -5760
0 -66 -66 -120 -288 -120 -493 0 -301 -58 -415 -300 -587 l-300 -214 0 -2751
0 -2751 -452 -452 c-757 -757 -748 -797 -748 3460 0 2720 -31 3699 -120 3788
-170 170 -4390 170 -4560 0z M118200 23700 c-168 -236 -289 -300 -567 -300
-308 0 -448 -97 -1093 -757 l-740 -757 0 -7236 0 -7236 300 -214 c236 -168
300 -289 300 -565 0 -282 87 -438 442 -793 l442 -442 951 0 c943 0 953 -3
1165 -300 l214 -300 1586 0 1586 0 214 300 c212 297 222 300 1162 300 l948 0
745 745 745 745 0 7548 0 7548 -300 214 c-242 172 -300 286 -300 587 0 470
-143 613 -613 613 -301 0 -415 58 -587 300 l-214 300 -3086 0 -3086 0 -214
-300z m3480 -3420 c91 -91 120 -1535 120 -5888 0 -6592 34 -6341 -748 -5560
l-452 452 0 5438 c0 4096 30 5468 120 5558 66 66 282 120 480 120 198 0 414
-54 480 -120z M127920 23880 c-174 -174 -174 -18786 0 -18960 170 -170 4390
-170 4560 0 88 88 120 867 120 2880 0 2013 32 2792 120 2880 158 158 1402 158
1560 0 88 -88 120 -867 120 -2880 0 -2013 32 -2792 120 -2880 170 -170 4390
-170 4560 0 89 89 120 997 120 3465 l0 3345 -460 435 c-351 331 -539 435 -788
435 -180 0 -384 67 -452 150 -190 230 51 450 492 450 465 0 608 144 608 613 0
301 58 415 300 587 l300 214 0 3648 0 3648 -745 745 c-642 641 -794 745 -1093
745 -273 0 -395 65 -562 300 l-214 300 -4273 0 c-3190 0 -4303 -30 -4393 -120z
m6360 -3600 c87 -87 120 -795 120 -2558 l0 -2438 -442 -442 c-348 -348 -514
-442 -780 -442 -186 0 -392 54 -458 120 -88 88 -120 867 -120 2880 0 2013 32
2792 120 2880 69 69 400 120 780 120 380 0 711 -51 780 -120z M140520 23880
c-174 -174 -174 -18786 0 -18960 170 -170 4390 -170 4560 0 87 87 120 802 120
2588 0 2071 24 2487 150 2592 225 187 450 -49 450 -471 0 -260 75 -413 300
-610 277 -244 300 -314 300 -934 0 -632 18 -684 300 -885 245 -174 300 -285
300 -600 0 -315 55 -426 300 -600 242 -172 300 -286 300 -587 0 -205 54 -427
120 -493 86 -86 728 -120 2258 -120 l2138 0 461 462 462 461 -320 264 c-256
210 -321 338 -320 631 1 296 -58 411 -299 582 -283 202 -300 251 -300 900 0
649 -17 698 -300 900 -245 174 -300 285 -300 600 0 315 -55 426 -300 600 -283
202 -300 251 -300 900 0 649 -17 698 -300 900 -245 174 -300 285 -300 600 0
315 -55 426 -300 600 -282 201 -300 253 -299 882 1 632 -17 683 -325 943
l-326 275 326 275 c259 219 326 350 325 643 -1 296 58 411 299 582 283 202
300 251 300 900 0 649 17 698 300 900 245 174 300 285 300 600 0 315 55 426
300 600 283 202 300 251 300 900 0 649 17 698 300 900 245 174 300 285 300
600 0 315 55 426 300 600 242 172 300 286 300 587 0 205 -54 427 -120 493
-171 171 -4989 171 -5160 0 -66 -66 -120 -288 -120 -493 0 -301 -58 -415 -300
-587 -282 -201 -300 -253 -300 -885 0 -620 -23 -690 -300 -934 -225 -197 -300
-350 -300 -610 0 -422 -225 -658 -450 -471 -124 103 -150 454 -150 1992 0
1320 -35 1903 -120 1988 -170 170 -4390 170 -4560 0z"/>
  </g>
</svg>
